# xmcd
#
# Track frame offsets:
#	150
#	33332
#	56675
#	77861
#
# Disc length: 1537 seconds
#
# Revision: 1
# Processed by: cddbd v1.5.2PL0 Copyright (c) Steve Scherf et al.
# Submitted via: audiograbber 1.83.01
#
DISCID=2b05ff04
DTITLE=Grateful Dead - 73-02-19 Assembly Hall, University of Illinois, Champaig
DTITLE=n-Urbana IL
DYEAR=1900
DGENRE=
TTITLE0=China Cat Sunflower
TTITLE1=I Know You Rider
TTITLE2=Jack Straw
TTITLE3=Mississippi Half-Step
EXTD=
EXTT0=
EXTT1=
EXTT2=
EXTT3=
PLAYORDER=
